<?xml version="1.0"?>
<svg xmlns="http://www.w3.org/2000/svg" xmlns:xlink="http://www.w3.org/1999/xlink" version="1.1" id="Capa_1" x="0px" y="0px" viewBox="0 0 490.4 490.4" style="enable-background:new 0 0 490.4 490.4;" xml:space="preserve" width="512px" height="512px" class=""><g><g>
	<g>
		<path d="M222.5,453.7c6.1,6.1,14.3,9.5,22.9,9.5c8.5,0,16.9-3.5,22.9-9.5L448,274c27.3-27.3,42.3-63.6,42.4-102.1    
		c0-38.6-15-74.9-42.3-102.2S384.6,27.4,346,27.4c-37.9,0-73.6,14.5-100.7,40.9c-27.2-26.5-63-41.1-101-41.1    
		c-38.5,0-74.7,15-102,42.2C15,96.7,0,133,0,171.6c0,38.5,15.1,74.8,42.4,102.1L222.5,453.7z M59.7,86.8" data-original="#000000" class="active-path" data-old_color="#A81414" fill="#DE1B1B"/>
	</g>
</g></g> </svg>
